<?xml version="1.0" standalone="no"?>
<!DOCTYPE svg PUBLIC "-//W3C//DTD SVG 20010904//EN"
 "http://www.w3.org/TR/2001/REC-SVG-20010904/DTD/svg10.dtd">
<svg version="1.0" xmlns="http://www.w3.org/2000/svg"
 width="540.000000pt" height="283.000000pt" viewBox="0 0 540.000000 283.000000"
 preserveAspectRatio="xMidYMid meet">

<g transform="translate(0.000000,283.000000) scale(0.100000,-0.100000)"
fill="#000000" stroke="none">
<path d="M1979 2314 c-10 -13 -10 -17 2 -25 20 -12 24 -12 44 11 10 11 22 17
26 14 15 -9 10 -22 -8 -27 -16 -4 -16 -5 -1 -6 25 -2 33 19 14 37 -16 16 -18
15 -35 -7 -12 -15 -23 -21 -31 -16 -10 6 -9 11 5 22 11 7 14 13 8 13 -6 0 -16
-7 -24 -16z"/>
<path d="M2084 2305 c1 -23 30 -28 32 -5 0 9 -1 10 -3 3 -6 -19 -21 -16 -26 5
-3 13 -4 12 -3 -3z"/>
<path d="M2175 2320 c-3 -5 -2 -10 4 -10 5 0 13 5 16 10 3 6 2 10 -4 10 -5 0
-13 -4 -16 -10z"/>
<path d="M2223 2315 c-3 -9 -3 -19 1 -22 3 -4 6 2 6 11 0 12 5 16 16 12 8 -3
12 -2 9 4 -9 15 -25 12 -32 -5z"/>
<path d="M2321 2321 c-16 -10 -8 -41 10 -41 8 0 8 4 0 13 -8 10 -7 17 1 25 14
14 9 15 -11 3z"/>
<path d="M2140 2300 c0 -11 2 -20 4 -20 2 0 6 9 9 20 3 11 1 20 -4 20 -5 0 -9
-9 -9 -20z"/>
<path d="M2282 2300 c0 -14 2 -19 5 -12 2 6 2 18 0 25 -3 6 -5 1 -5 -13z"/>
<path d="M2351 2304 c0 -11 3 -14 6 -6 3 7 2 16 -1 19 -3 4 -6 -2 -5 -13z"/>
<path d="M2185 2290 c-3 -6 1 -7 9 -4 18 7 21 14 7 14 -6 0 -13 -4 -16 -10z"/>
<path d="M3678 2150 c-3 -16 -1 -30 4 -30 4 0 8 14 8 30 0 17 -2 30 -4 30 -2
0 -6 -13 -8 -30z"/>
<path d="M2460 2020 c-24 -24 -25 -38 -4 -68 27 -39 94 -25 94 20 0 13 -8 18
-25 18 -14 0 -25 -4 -25 -10 0 -5 7 -10 16 -10 21 0 12 -24 -10 -28 -24 -5
-46 16 -46 44 0 28 14 37 54 36 22 -1 26 2 16 8 -24 15 -48 12 -70 -10z"/>
<path d="M2850 1987 c0 -31 3 -57 8 -57 9 0 8 97 -1 106 -4 4 -7 -18 -7 -49z"/>
<path d="M2586 1997 c-28 -20 -18 -61 16 -65 36 -4 53 26 32 56 -18 26 -24 27
-48 9z m42 -30 c4 -20 -25 -34 -40 -19 -15 15 -1 44 19 40 10 -2 19 -11 21
-21z"/>
<path d="M2676 1997 c-36 -26 4 -84 42 -61 23 15 26 38 7 58 -20 19 -26 20
-49 3z m44 -26 c0 -26 -17 -36 -35 -21 -18 15 -8 40 16 40 12 0 19 -7 19 -19z"/>
<path d="M2765 1993 c-8 -8 -15 -20 -15 -27 0 -20 27 -39 45 -32 9 3 15 0 15
-10 0 -12 -7 -15 -25 -12 -28 6 -34 -6 -9 -16 21 -8 20 -8 38 10 10 9 16 33
16 57 0 38 -3 42 -25 43 -14 1 -32 -5 -40 -13z m43 -25 c-2 -13 -10 -23 -18
-23 -8 0 -16 10 -18 23 -3 17 2 22 18 22 16 0 21 -5 18 -22z"/>
<path d="M2896 1994 c-19 -19 -20 -36 -4 -52 15 -15 45 -16 53 -2 4 6 -4 9
-17 7 -17 -1 -24 4 -26 21 -3 17 1 22 20 22 22 -1 22 -1 4 -15 -21 -16 -13
-18 18 -6 17 7 17 8 2 24 -21 21 -30 21 -50 1z"/>
<path d="M2890 1845 c0 -16 16 -20 24 -6 3 5 -1 11 -9 15 -9 3 -15 0 -15 -9z"/>
<path d="M2250 1797 c0 -59 12 -77 50 -77 14 0 31 5 38 12 14 14 16 118 2 118
-5 0 -10 -22 -10 -49 0 -56 -19 -82 -45 -61 -10 8 -15 30 -15 61 0 27 -4 49
-10 49 -5 0 -10 -24 -10 -53z"/>
<path d="M2397 1820 c17 -30 17 -32 0 -62 -23 -40 -11 -51 17 -15 l22 28 12
-26 c6 -14 18 -25 26 -25 13 0 11 7 -5 35 -20 34 -20 37 -4 61 22 34 9 46 -17
15 -16 -21 -21 -22 -29 -10 -5 7 -9 17 -9 22 0 4 -7 7 -16 7 -13 0 -13 -4 3
-30z"/>
<path d="M2555 1785 l-1 -65 36 0 c51 0 74 20 74 65 0 45 -23 65 -74 65 l-35
0 0 -65z m86 23 c18 -33 -4 -68 -41 -68 -29 0 -30 2 -30 43 0 24 2 46 5 49 11
11 56 -5 66 -24z"/>
<path d="M2713 1810 c-48 -19 -35 -90 17 -90 16 0 32 5 35 10 4 7 -2 9 -17 5
-16 -4 -29 -1 -37 9 -12 14 -8 16 29 16 33 0 41 3 38 16 -5 26 -40 43 -65 34z
m37 -25 c-8 -15 -40 -13 -40 2 0 9 8 13 23 11 12 -2 20 -7 17 -13z"/>
<path d="M2820 1812 c-36 -12 -28 -52 11 -52 11 0 19 -7 19 -16 0 -12 -7 -14
-30 -9 -35 8 -40 -2 -7 -14 26 -10 57 3 57 25 0 8 -11 19 -25 24 -30 11 -34
35 -5 27 11 -3 20 -2 20 3 0 11 -22 18 -40 12z"/>
<path d="M2961 1812 c-21 -7 -32 -39 -21 -67 9 -23 15 -27 41 -23 23 4 29 1
27 -11 -3 -12 -14 -15 -38 -14 -33 3 -34 2 -16 -12 45 -34 76 -5 76 70 0 50
-1 53 -28 57 -16 2 -34 2 -41 0z m33 -18 c20 -8 21 -38 2 -53 -11 -9 -18 -8
-30 4 -19 20 -20 27 -4 43 14 14 12 14 32 6z"/>
<path d="M3080 1811 c-22 -5 -25 -12 -26 -48 -1 -29 2 -43 11 -43 7 0 11 9 8
23 -5 26 19 63 35 53 7 -4 12 -23 12 -42 0 -19 5 -34 10 -34 6 0 10 18 10 40
0 44 -19 60 -60 51z"/>
<path d="M2890 1765 c0 -25 5 -45 10 -45 6 0 10 20 10 45 0 25 -4 45 -10 45
-5 0 -10 -20 -10 -45z"/>
<path d="M2246 1589 c-65 -51 -1 -143 78 -113 29 11 16 23 -19 17 -41 -7 -65
9 -65 43 0 34 28 57 62 50 30 -6 39 8 12 18 -26 10 -40 7 -68 -15z"/>
<path d="M2632 1601 c2 -7 7 -12 11 -12 12 1 9 15 -3 20 -7 2 -11 -2 -8 -8z"/>
<path d="M2690 1580 c-12 -16 -17 -30 -11 -30 6 0 11 -18 11 -40 0 -22 5 -40
10 -40 6 0 10 18 10 40 0 36 3 40 25 40 23 0 25 -4 25 -40 0 -22 5 -40 10 -40
6 0 10 20 10 45 0 45 0 45 -35 45 -34 0 -46 12 -25 25 6 3 10 10 10 16 0 18
-19 8 -40 -21z"/>
<path d="M2756 1601 c-4 -5 -2 -12 3 -15 5 -4 12 -2 15 3 4 5 2 12 -3 15 -5 4
-12 2 -15 -3z"/>
<path d="M2564 1581 c4 -5 0 -12 -6 -15 -10 -5 -10 -7 0 -12 6 -3 12 -21 12
-40 0 -22 6 -37 15 -41 23 -8 33 7 12 18 -21 12 -23 47 -3 55 12 5 11 9 -5 25
-20 20 -34 26 -25 10z"/>
<path d="M3012 1570 c-7 -11 -8 -20 -3 -20 6 0 11 -17 13 -37 2 -31 7 -39 26
-41 12 -2 22 1 22 7 0 6 -7 11 -15 11 -10 0 -15 10 -15 30 0 20 5 30 15 30 12
0 11 4 -5 20 -11 11 -21 20 -23 20 -1 0 -8 -9 -15 -20z"/>
<path d="M2378 1558 c-24 -20 -28 -44 -11 -67 17 -25 63 -26 71 -3 3 11 0 12
-15 3 -15 -8 -25 -7 -39 4 -18 13 -18 14 -1 16 9 1 22 3 27 4 6 1 17 3 25 4
19 1 19 15 -1 35 -19 19 -35 20 -56 4z m47 -18 c4 -6 -5 -10 -19 -10 -14 0
-26 5 -26 10 0 6 9 10 19 10 11 0 23 -4 26 -10z"/>
<path d="M2470 1518 c0 -27 5 -48 10 -48 6 0 10 16 10 36 0 27 5 37 20 41 30
8 24 20 -10 19 -29 -1 -30 -3 -30 -48z"/>
<path d="M2639 1568 c-5 -13 -2 -98 3 -98 5 0 8 23 8 50 0 28 -2 50 -5 50 -3
0 -5 -1 -6 -2z"/>
<path d="M2816 1557 c-22 -16 -18 -65 5 -80 19 -12 72 -1 64 13 -4 7 -13 7
-25 0 -22 -12 -44 9 -38 37 3 14 12 17 37 15 29 -2 32 0 21 13 -15 18 -40 19
-64 2z"/>
<path d="M2923 1563 c-24 -9 -13 -20 17 -15 18 3 30 0 30 -7 0 -6 -10 -11 -23
-11 -32 0 -49 -19 -36 -41 6 -13 20 -18 44 -17 33 1 35 3 35 38 0 51 -25 71
-67 53z m45 -61 c5 -17 -27 -27 -41 -13 -9 9 -8 14 3 21 18 11 32 8 38 -8z"/>
<path d="M3096 1551 c-21 -23 -18 -60 5 -74 19 -12 72 -1 64 14 -5 6 -12 6
-21 -2 -12 -10 -18 -9 -32 4 -15 16 -14 17 13 18 17 1 33 1 38 0 16 -2 6 39
-12 49 -27 14 -35 13 -55 -9z m54 -11 c0 -5 -12 -10 -26 -10 -14 0 -23 4 -19
10 3 6 15 10 26 10 10 0 19 -4 19 -10z"/>
<path d="M1608 1373 c12 -2 32 -2 45 0 12 2 2 4 -23 4 -25 0 -35 -2 -22 -4z"/>
<path d="M1728 1373 c29 -2 74 -2 100 0 26 2 2 3 -53 3 -55 0 -76 -1 -47 -3z"/>
<path d="M3465 1330 c-6 -19 -17 -20 -388 -22 l-382 -3 2 -42 c1 -23 -2 -45
-6 -48 -5 -3 -7 -15 -3 -27 4 -16 2 -19 -8 -13 -9 6 -11 4 -5 -5 7 -11 12 -9
23 8 8 12 23 22 33 22 21 0 26 -16 7 -23 -10 -4 -9 -6 1 -6 9 -1 10 -5 3 -13
-5 -7 -12 -23 -14 -36 -5 -33 -22 -32 -29 3 -3 17 -5 -14 -5 -67 l1 -98 447 0
447 0 3 175 3 175 -53 20 c-65 25 -69 25 -77 0z m-609 -135 c20 -15 17 -17
-26 -19 -20 -1 -25 -6 -25 -26 0 -20 5 -25 27 -25 36 -1 44 -11 20 -24 -37
-20 -82 10 -82 54 0 17 39 55 55 55 6 0 20 -7 31 -15z m499 -11 c-6 -2 -8 -25
-6 -50 2 -32 0 -44 -8 -40 -12 8 -15 98 -4 110 4 3 11 1 17 -5 7 -8 8 -13 1
-15z m-165 -10 c0 -23 1 -24 16 -10 18 18 24 19 44 6 11 -7 19 -4 31 12 l17
21 12 -23 c9 -18 10 -25 2 -28 -9 -3 -9 -9 -1 -23 12 -23 4 -40 -16 -32 -8 3
-15 17 -15 31 0 25 -10 26 -14 0 -5 -39 -33 -49 -60 -22 -9 8 -16 11 -16 5 0
-6 -10 -11 -22 -11 -13 0 -33 -1 -44 -1 -12 0 -21 -6 -20 -12 0 -7 -3 -13 -9
-15 -5 -1 -11 22 -13 51 l-3 53 30 -2 c16 -1 34 -5 40 -9 7 -3 11 2 11 14 0
12 7 21 15 21 9 0 15 -10 15 -26z m-250 -14 c18 -18 20 -18 20 -2 0 14 8 17
48 16 26 -1 50 -2 55 -3 11 -2 8 -81 -3 -81 -5 0 -10 14 -10 30 0 17 -4 30
-10 30 -5 0 -10 -11 -10 -25 0 -16 -6 -25 -15 -25 -9 0 -15 9 -15 25 0 33 -18
32 -22 0 -2 -14 -7 -25 -13 -24 -5 0 -9 5 -7 11 1 5 -8 2 -20 -6 -12 -9 -26
-16 -30 -16 -12 0 -38 31 -38 45 0 15 27 45 41 45 5 0 18 -9 29 -20z m480 11
c8 -6 19 -7 24 -3 20 12 55 10 66 -3 14 -16 9 -71 -5 -68 -5 1 -11 14 -13 28
-4 32 -22 33 -22 1 0 -27 -15 -42 -25 -26 -4 7 -12 7 -26 0 -44 -24 -85 44
-41 69 21 13 24 13 42 2z"/>
<path d="M3105 1141 c-7 -12 12 -24 25 -16 11 7 4 25 -10 25 -5 0 -11 -4 -15
-9z"/>
<path d="M3228 1123 c7 -3 16 -2 19 1 4 3 -2 6 -13 5 -11 0 -14 -3 -6 -6z"/>
<path d="M2897 1144 c-9 -10 2 -24 19 -24 8 0 14 7 14 15 0 15 -21 21 -33 9z"/>
<path d="M3385 1141 c-7 -12 12 -24 25 -16 11 7 4 25 -10 25 -5 0 -11 -4 -15
-9z"/>
<path d="M1812 1133 l-2 -171 143 -56 c255 -99 352 -134 356 -130 3 2 -13 23
-35 47 -22 23 -57 62 -78 87 l-37 45 -167 5 -167 5 -5 170 -6 170 -2 -172z"/>
<path d="M1910 1210 c-11 -8 -8 -9 12 -4 14 3 37 1 50 -6 22 -11 22 -10 4 4
-23 18 -45 20 -66 6z"/>
<path d="M2170 1200 c-7 -14 -7 -20 0 -20 5 0 10 6 10 14 0 8 6 17 13 19 9 4
9 6 0 6 -7 1 -17 -8 -23 -19z"/>
<path d="M2236 1212 c-2 -4 4 -8 14 -8 10 0 16 4 14 8 -3 4 -9 8 -14 8 -5 0
-11 -4 -14 -8z"/>
<path d="M2138 1203 c7 -3 16 -2 19 1 4 3 -2 6 -13 5 -11 0 -14 -3 -6 -6z"/>
<path d="M2212 1190 c0 -14 2 -19 5 -12 2 6 2 18 0 25 -3 6 -5 1 -5 -13z"/>
<path d="M2301 1186 c-1 -21 2 -26 12 -19 6 6 19 13 27 17 8 3 5 4 -7 2 -14
-2 -23 2 -26 13 -3 9 -5 3 -6 -13z"/>
<path d="M2654 1202 c3 -5 0 -13 -6 -15 -9 -4 -10 -6 -1 -6 17 -1 25 16 12 25
-7 4 -9 3 -5 -4z"/>
<path d="M1877 1183 c-9 -9 -9 -61 1 -66 4 -3 7 12 7 34 0 21 0 39 -1 39 0 0
-4 -3 -7 -7z"/>
<path d="M1990 1175 c-9 -11 -17 -12 -32 -4 -28 15 -50 4 -46 -23 4 -31 60
-33 68 -3 3 11 17 25 30 32 17 8 19 13 9 13 -9 0 -22 -7 -29 -15z m-30 -15
c13 -9 13 -11 0 -20 -24 -16 -40 -12 -40 10 0 22 16 26 40 10z"/>
<path d="M2076 1178 c3 -5 10 -6 15 -3 13 9 11 12 -6 12 -8 0 -12 -4 -9 -9z"/>
<path d="M2115 1180 c3 -5 8 -10 11 -10 2 0 4 5 4 10 0 6 -5 10 -11 10 -5 0
-7 -4 -4 -10z"/>
<path d="M2553 1178 c15 -5 27 -17 28 -26 0 -13 2 -14 6 -3 6 16 -23 41 -46
40 -9 0 -4 -5 12 -11z"/>
<path d="M2046 1165 c4 -8 8 -15 10 -15 2 0 4 7 4 15 0 8 -4 15 -10 15 -5 0
-7 -7 -4 -15z"/>
<path d="M2367 1161 c5 -20 3 -22 -15 -17 -11 4 -23 2 -26 -3 -11 -17 13 -22
39 -9 23 13 24 15 11 33 -14 19 -15 19 -9 -4z"/>
<path d="M2170 1160 c-1 -8 -2 -28 -1 -43 2 -39 -33 -34 -37 6 -2 19 -9 27
-23 27 -15 0 -19 -7 -18 -32 2 -31 2 -31 6 -5 5 32 20 36 25 6 2 -12 11 -27
20 -33 26 -16 40 4 35 50 -2 22 -5 32 -7 24z"/>
<path d="M2601 1138 c0 -15 6 -34 15 -42 17 -17 50 -21 58 -7 3 4 -5 6 -17 4
-26 -5 -43 11 -50 47 l-4 25 -2 -27z"/>
<path d="M2212 1120 c0 -19 2 -27 5 -17 2 9 2 25 0 35 -3 9 -5 1 -5 -18z"/>
<path d="M2250 1125 c0 -14 5 -25 10 -25 6 0 10 11 10 25 0 14 -4 25 -10 25
-5 0 -10 -11 -10 -25z"/>
<path d="M2450 1120 c0 -16 4 -30 8 -30 5 0 7 14 4 30 -2 17 -6 30 -8 30 -2 0
-4 -13 -4 -30z"/>
<path d="M2491 1134 c0 -11 3 -14 6 -6 3 7 2 16 -1 19 -3 4 -6 -2 -5 -13z"/>
<path d="M2649 1142 c9 -7 10 -11 2 -15 -7 -4 -8 -5 -1 -3 16 2 14 20 -2 24
-10 3 -10 2 1 -6z"/>
<path d="M2047 1110 c-5 -21 -41 -28 -52 -10 -4 7 -13 6 -27 -1 -11 -6 -35 -9
-52 -6 -29 5 -29 5 -8 -5 17 -9 31 -9 52 -1 19 7 32 7 38 1 17 -17 62 0 62 22
0 26 -6 26 -13 0z"/>
<path d="M2300 1101 c0 -5 9 -13 20 -16 23 -7 60 2 60 16 0 5 -9 4 -20 -3 -16
-10 -24 -10 -40 0 -11 7 -20 8 -20 3z"/>
<path d="M2506 1097 c3 -10 9 -15 12 -12 3 3 0 11 -7 18 -10 9 -11 8 -5 -6z"/>
<path d="M2545 1090 c-13 -6 -15 -9 -5 -9 8 0 22 4 30 9 18 12 2 12 -25 0z"/>
<path d="M2270 1086 c0 -2 7 -7 16 -10 8 -3 12 -2 9 4 -6 10 -25 14 -25 6z"/>
<path d="M2398 1083 c7 -3 16 -2 19 1 4 3 -2 6 -13 5 -11 0 -14 -3 -6 -6z"/>
</g>
</svg>
